<svg width="146" height="19" fill="none" xmlns="http://www.w3.org/2000/svg"><path d="M.848.36h7.728v2.352H3.512v4.872h4.08v2.4h-4.08v5.64h5.856V18H.848V.36Zm9.307 6.624h2.952l2.376 4.968.768 1.992.768-1.992 2.352-4.968h2.88L16.467 18h-.504L10.155 6.984ZM28.834 18.24c-1.312 0-2.408-.256-3.288-.768-.88-.528-1.528-1.224-1.944-2.088-.416-.88-.624-1.84-.624-2.88 0-1.168.24-2.192.72-3.072a5.048 5.048 0 0 1 2.04-2.016c.864-.48 1.84-.72 2.928-.72 1.696 0 2.952.472 3.768 1.416.832.928 1.248 2.24 1.248 3.936 0 .432-.024.88-.072 1.344h-7.92c.176.976.52 1.68 1.032 2.112.528.432 1.256.648 2.184.648.768 0 1.4-.064 1.896-.192a6.075 6.075 0 0 0 1.368-.528l.792 1.848c-.4.256-.944.48-1.632.672-.688.192-1.52.288-2.496.288Zm2.328-6.648c.016-.992-.2-1.688-.648-2.088-.448-.416-1.088-.624-1.92-.624-1.68 0-2.648.904-2.904 2.712h5.472Zm5.237-4.608h2.544L38.967 9c.304-.672.784-1.224 1.44-1.656.656-.432 1.424-.648 2.304-.648 1.136 0 2.008.24 2.616.72.608.464 1.016 1.12 1.224 1.968.208.848.312 1.952.312 3.312V18h-2.592v-5.232c0-1.392-.136-2.392-.408-3-.272-.624-.832-.936-1.68-.936-.48 0-.968.152-1.464.456-.496.288-.912.712-1.248 1.272-.32.56-.48 1.216-.48 1.968V18H36.4V6.984Zm14.765 2.112H49.22V6.984h1.944V2.496l2.616-.576v5.064h2.544v2.112H53.78V18h-2.616V9.096ZM64.481.36h3.888c2.192 0 3.792.472 4.8 1.416 1.024.928 1.536 2.208 1.536 3.84 0 1.888-.552 3.336-1.656 4.344-1.104 1.008-2.744 1.512-4.92 1.512h-.936V18h-2.712V.36Zm3.72 8.736c1.408 0 2.392-.312 2.952-.936.56-.624.84-1.376.84-2.256 0-.944-.272-1.712-.816-2.304-.544-.592-1.456-.888-2.736-.888h-1.248v6.384h1.008ZM77.256.36h2.568V18h-2.568V.36Zm11.078 17.88a5.658 5.658 0 0 1-2.76-.696 5.536 5.536 0 0 1-2.016-2.016c-.496-.88-.744-1.904-.744-3.072 0-1.152.216-2.16.648-3.024a4.906 4.906 0 0 1 1.896-2.016c.816-.48 1.776-.72 2.88-.72.64 0 1.24.112 1.8.336a4.88 4.88 0 0 1 1.416.84c.384.32.64.64.768.96l.048-1.848h2.472V18h-2.448l-.048-1.944c-.272.576-.768 1.088-1.488 1.536-.72.432-1.528.648-2.424.648Zm.432-2.16c.912 0 1.68-.312 2.304-.936.624-.64.936-1.472.936-2.496v-.168c0-.688-.144-1.304-.432-1.848a3.228 3.228 0 0 0-1.176-1.272 3.064 3.064 0 0 0-1.632-.456c-1.024 0-1.816.336-2.376 1.008-.56.656-.84 1.512-.84 2.568 0 1.072.272 1.944.816 2.616.56.656 1.36.984 2.4.984Zm9.461-9.096h2.544L100.795 9c.304-.672.784-1.224 1.44-1.656.656-.432 1.424-.648 2.304-.648 1.136 0 2.008.24 2.616.72.608.464 1.016 1.12 1.224 1.968.208.848.312 1.952.312 3.312V18h-2.592v-5.232c0-1.392-.136-2.392-.408-3-.272-.624-.832-.936-1.68-.936-.48 0-.968.152-1.464.456-.496.288-.912.712-1.248 1.272-.32.56-.48 1.216-.48 1.968V18h-2.592V6.984Zm13.805 0h2.544L114.6 9c.304-.672.784-1.224 1.44-1.656.656-.432 1.424-.648 2.304-.648 1.136 0 2.008.24 2.616.72.608.464 1.016 1.12 1.224 1.968.208.848.312 1.952.312 3.312V18h-2.592v-5.232c0-1.392-.136-2.392-.408-3-.272-.624-.832-.936-1.68-.936-.48 0-.968.152-1.464.456-.496.288-.912.712-1.248 1.272-.32.56-.48 1.216-.48 1.968V18h-2.592V6.984Zm19.013 11.256c-1.312 0-2.408-.256-3.288-.768-.88-.528-1.528-1.224-1.944-2.088-.416-.88-.624-1.84-.624-2.88 0-1.168.24-2.192.72-3.072a5.048 5.048 0 0 1 2.04-2.016c.864-.48 1.84-.72 2.928-.72 1.696 0 2.952.472 3.768 1.416.832.928 1.248 2.24 1.248 3.936 0 .432-.024.88-.072 1.344h-7.92c.176.976.52 1.68 1.032 2.112.528.432 1.256.648 2.184.648.768 0 1.4-.064 1.896-.192a6.075 6.075 0 0 0 1.368-.528l.792 1.848c-.4.256-.944.48-1.632.672-.688.192-1.52.288-2.496.288Zm2.328-6.648c.016-.992-.2-1.688-.648-2.088-.448-.416-1.088-.624-1.92-.624-1.68 0-2.648.904-2.904 2.712h5.472Zm5.165-4.608h2.592v2.16c.256-.736.672-1.328 1.248-1.776a3.12 3.12 0 0 1 1.968-.672c.512 0 .864.048 1.056.144l-.36 2.616c-.144-.096-.456-.144-.936-.144-.752 0-1.44.24-2.064.72-.608.48-.912 1.248-.912 2.304V18h-2.592V6.984Z" fill="#7B61FF"/></svg>